<svg xmlns="http://www.w3.org/2000/svg" width="244.125" height="71.555" viewBox="0 0 244.125 71.555">
  <g id="Group_218" data-name="Group 218" transform="translate(-115.606 -119)">
    <path id="Path_243" data-name="Path 243" d="M-105.37,0h-5.346l-2.125-5.528h-9.729L-124.578,0h-5.213l9.479-24.338h5.2Zm-9.048-9.629-3.354-9.031-3.287,9.031ZM-100.124,0-105.7-17.631h4.532l3.3,11.555,3.038-11.555h4.5l2.938,11.555,3.37-11.555h4.6L-85.083,0h-4.482L-92.6-11.339-95.592,0Zm26.646-12.252-4.233-.764A6.594,6.594,0,0,1-75.255-16.8a8.991,8.991,0,0,1,5.18-1.229,11.163,11.163,0,0,1,4.648.739,4.636,4.636,0,0,1,2.15,1.876,9.62,9.62,0,0,1,.623,4.175l-.05,5.445a18.9,18.9,0,0,0,.224,3.428A10.007,10.007,0,0,0-61.642,0h-4.615q-.183-.465-.448-1.378-.116-.415-.166-.548A8.41,8.41,0,0,1-69.428-.183,7.323,7.323,0,0,1-72.333.4a6.008,6.008,0,0,1-4.292-1.478,4.911,4.911,0,0,1-1.569-3.735,5.014,5.014,0,0,1,.714-2.665,4.664,4.664,0,0,1,2-1.793,15.635,15.635,0,0,1,3.71-1.087A25.417,25.417,0,0,0-67.236-11.5v-.465a2.415,2.415,0,0,0-.664-1.917,3.979,3.979,0,0,0-2.507-.573,3.338,3.338,0,0,0-1.942.49A3.4,3.4,0,0,0-73.479-12.252Zm6.242,3.785a29.16,29.16,0,0,1-2.839.714,8.551,8.551,0,0,0-2.54.813A1.946,1.946,0,0,0-73.528-5.3,2.288,2.288,0,0,0-72.8-3.6a2.55,2.55,0,0,0,1.859.714,4.04,4.04,0,0,0,2.407-.83,2.922,2.922,0,0,0,1.112-1.544,9.212,9.212,0,0,0,.183-2.274ZM-58.222,0V-24.338h4.665v12.916l5.462-6.209h5.744l-6.026,6.441L-41.919,0h-5.03l-4.433-7.919-2.175,2.274V0Zm29.285-5.611,4.648.78A7.625,7.625,0,0,1-27.119-.938,8.315,8.315,0,0,1-31.958.4q-4.6,0-6.807-3a10.1,10.1,0,0,1-1.743-6.076,9.735,9.735,0,0,1,2.291-6.865,7.545,7.545,0,0,1,5.794-2.482,7.826,7.826,0,0,1,6.209,2.6q2.274,2.6,2.175,7.96H-35.727A4.72,4.72,0,0,0-34.6-4.242a3.531,3.531,0,0,0,2.689,1.154,2.856,2.856,0,0,0,1.843-.6A3.691,3.691,0,0,0-28.937-5.611Zm.266-4.715a4.491,4.491,0,0,0-1.046-3.08,3.209,3.209,0,0,0-2.424-1.054,3.24,3.24,0,0,0-2.523,1.112,4.3,4.3,0,0,0-.979,3.021ZM-15.771,0h-4.665V-17.631H-16.1v2.507a7.535,7.535,0,0,1,2-2.341,3.68,3.68,0,0,1,2.017-.564,5.921,5.921,0,0,1,3.071.88l-1.444,4.067a4.093,4.093,0,0,0-2.191-.764,2.589,2.589,0,0,0-1.66.54,3.688,3.688,0,0,0-1.071,1.951,27.712,27.712,0,0,0-.39,5.91Zm8.766-20.021v-4.316h4.665v4.316ZM-7.006,0V-17.631h4.665V0ZM-144.583,29l-5.811-24.338h5.03l3.669,16.718,4.449-16.718h5.844l4.267,17,3.735-17h4.947L-124.362,29h-5.213l-4.848-18.2L-139.254,29Zm38.2-5.611,4.648.78a7.625,7.625,0,0,1-2.831,3.893A8.315,8.315,0,0,1-109.4,29.4q-4.6,0-6.807-3a10.1,10.1,0,0,1-1.743-6.076,9.735,9.735,0,0,1,2.291-6.865,7.545,7.545,0,0,1,5.794-2.482,7.826,7.826,0,0,1,6.209,2.6q2.274,2.6,2.175,7.96h-11.687a4.72,4.72,0,0,0,1.129,3.229,3.531,3.531,0,0,0,2.689,1.154,2.856,2.856,0,0,0,1.843-.6A3.691,3.691,0,0,0-106.383,23.389Zm.266-4.715a4.491,4.491,0,0,0-1.046-3.08,3.209,3.209,0,0,0-2.424-1.054,3.24,3.24,0,0,0-2.523,1.112,4.3,4.3,0,0,0-.979,3.021Zm16.519-7.3v3.719h-3.187v7.105a17.672,17.672,0,0,0,.091,2.515,1.025,1.025,0,0,0,.415.589,1.316,1.316,0,0,0,.789.232,6.035,6.035,0,0,0,1.876-.448l.4,3.619a9.273,9.273,0,0,1-3.686.7,5.846,5.846,0,0,1-2.274-.423,3.319,3.319,0,0,1-1.486-1.1,4.325,4.325,0,0,1-.656-1.818,22.613,22.613,0,0,1-.149-3.287V15.088h-2.142V11.369h2.142v-3.5l4.682-2.723v6.226ZM-86.361,29V4.662H-81.7V29Zm12.933-12.252-4.233-.764A6.594,6.594,0,0,1-75.205,12.2a8.991,8.991,0,0,1,5.18-1.229,11.163,11.163,0,0,1,4.648.739,4.636,4.636,0,0,1,2.15,1.876,9.62,9.62,0,0,1,.623,4.175l-.05,5.445a18.9,18.9,0,0,0,.224,3.428A10.007,10.007,0,0,0-61.592,29h-4.615q-.183-.465-.448-1.378-.116-.415-.166-.548a8.41,8.41,0,0,1-2.557,1.743,7.323,7.323,0,0,1-2.905.581,6.008,6.008,0,0,1-4.292-1.478,4.911,4.911,0,0,1-1.569-3.735,5.014,5.014,0,0,1,.714-2.665,4.664,4.664,0,0,1,2-1.793,15.635,15.635,0,0,1,3.71-1.087A25.417,25.417,0,0,0-67.187,17.5V17.03a2.415,2.415,0,0,0-.664-1.917,3.979,3.979,0,0,0-2.507-.573,3.338,3.338,0,0,0-1.942.49A3.4,3.4,0,0,0-73.429,16.748Zm6.242,3.785a29.16,29.16,0,0,1-2.839.714,8.551,8.551,0,0,0-2.54.813,1.946,1.946,0,0,0-.913,1.644,2.288,2.288,0,0,0,.73,1.693,2.55,2.55,0,0,0,1.859.714,4.04,4.04,0,0,0,2.407-.83,2.922,2.922,0,0,0,1.112-1.544,9.212,9.212,0,0,0,.183-2.274ZM-41.969,29h-4.665V20a13.907,13.907,0,0,0-.3-3.694A2.591,2.591,0,0,0-47.9,15a2.776,2.776,0,0,0-1.619-.465A3.741,3.741,0,0,0-51.7,15.2a3.346,3.346,0,0,0-1.32,1.76,15.211,15.211,0,0,0-.357,4.051V29h-4.665V11.369h4.333v2.59A7.059,7.059,0,0,1-47.9,10.971a7,7,0,0,1,2.822.556,4.729,4.729,0,0,1,1.934,1.419,5.142,5.142,0,0,1,.913,1.959,14.571,14.571,0,0,1,.257,3.138Zm20.9,0H-25.4V26.41a7,7,0,0,1-2.548,2.25,6.538,6.538,0,0,1-2.963.739,6.715,6.715,0,0,1-5.2-2.449,9.961,9.961,0,0,1-2.167-6.832q0-4.482,2.108-6.815a6.874,6.874,0,0,1,5.329-2.333,6.6,6.6,0,0,1,5.113,2.457V4.662h4.665Zm-12.451-9.2a8.073,8.073,0,0,0,.78,4.084,3.525,3.525,0,0,0,3.154,1.826,3.433,3.433,0,0,0,2.739-1.37,6.321,6.321,0,0,0,1.129-4.092,6.919,6.919,0,0,0-1.1-4.375,3.467,3.467,0,0,0-2.806-1.336A3.5,3.5,0,0,0-32.4,15.86,5.963,5.963,0,0,0-33.519,19.8Zm15.406,4.167,4.682-.714a3.43,3.43,0,0,0,1.212,2.067,4.1,4.1,0,0,0,2.557.706,4.615,4.615,0,0,0,2.723-.664,1.482,1.482,0,0,0,.614-1.245,1.225,1.225,0,0,0-.332-.88,3.717,3.717,0,0,0-1.561-.614q-5.645-1.245-7.155-2.274a4.542,4.542,0,0,1-2.092-3.968,4.89,4.89,0,0,1,1.81-3.852q1.81-1.561,5.611-1.561a9.789,9.789,0,0,1,5.379,1.179,6.024,6.024,0,0,1,2.424,3.486l-4.4.813a2.72,2.72,0,0,0-1.071-1.577,3.916,3.916,0,0,0-2.25-.548,5.068,5.068,0,0,0-2.64.515,1.105,1.105,0,0,0-.531.946,1.031,1.031,0,0,0,.465.847,17.5,17.5,0,0,0,4.358,1.312,12.973,12.973,0,0,1,5.2,2.075,4.313,4.313,0,0,1,1.461,3.47,5.326,5.326,0,0,1-2.025,4.167Q-5.694,29.4-9.662,29.4a9.834,9.834,0,0,1-5.7-1.461A6.731,6.731,0,0,1-18.112,23.97Z" transform="translate(266 152)" fill="#da9823"/>
    <g id="Group_217" data-name="Group 217" transform="translate(240.269 514.201)">
      <path id="Path_237" data-name="Path 237" d="M171.337,284.524c-12.99-2.226-16.693,12.988-34.5,5.944,0,0,7.044,20.028,25.234,23.383a32.011,32.011,0,0,0,5.487.529h.128c22.459-.034,19.542-27.455,3.651-29.857Z" transform="translate(-81.916 -638.027)" fill="#54a8d8" fill-rule="evenodd"/>
      <path id="Path_240" data-name="Path 240" d="M311.1,136.917s14.1-15.952,8.169-33.775c-3.828-11.223-5.329-13.739-10.13-13.007s-7.007,11.24-7.007,11.24c-5.245-2.114-16.3-1.087-12.931,8.084,4.093,12.617,19.306,8.54,21.9,27.458Z" transform="translate(-201.258 -485.219)" fill="#f57374" fill-rule="evenodd"/>
      <path id="Path_241" data-name="Path 241" d="M99.1,122.614c9.279-9.282-1.484-21.157,14.471-31.536,0,0-20.4-5.944-33.773,7.412-19.678,20.242,7.254,37.032,19.3,24.124Z" transform="translate(-31.559 -484.808)" fill="#8bc24a" fill-rule="evenodd"/>
      <path id="Path_239" data-name="Path 239" d="M23.119,0A110.537,110.537,0,0,1,0,21.842L.95,23.2A112.191,112.191,0,0,0,24.3,1.176Z" transform="translate(70.518 -362.289) rotate(159)" fill="#8bc24a"/>
    </g>
  </g>
</svg>
